<svg width="76" height="16" viewBox="0 0 76 16" fill="none" xmlns="http://www.w3.org/2000/svg">
<path d="M8.87695 11.3379C8.87695 10.7129 8.6556 10.2311 8.21289 9.89258C7.77669 9.55404 6.98568 9.21224 5.83984 8.86719C4.69401 8.52214 3.78255 8.13802 3.10547 7.71484C1.8099 6.90104 1.16211 5.83984 1.16211 4.53125C1.16211 3.38542 1.6276 2.44141 2.55859 1.69922C3.49609 0.957031 4.71029 0.585938 6.20117 0.585938C7.19076 0.585938 8.07292 0.768229 8.84766 1.13281C9.6224 1.4974 10.2311 2.01823 10.6738 2.69531C11.1165 3.36589 11.3379 4.11133 11.3379 4.93164H8.87695C8.87695 4.18945 8.64258 3.61003 8.17383 3.19336C7.71159 2.77018 7.04753 2.55859 6.18164 2.55859C5.37435 2.55859 4.74609 2.73112 4.29688 3.07617C3.85417 3.42122 3.63281 3.90299 3.63281 4.52148C3.63281 5.04232 3.8737 5.47852 4.35547 5.83008C4.83724 6.17513 5.63151 6.51367 6.73828 6.8457C7.84505 7.17122 8.73372 7.54557 9.4043 7.96875C10.0749 8.38542 10.5664 8.86719 10.8789 9.41406C11.1914 9.95443 11.3477 10.5892 11.3477 11.3184C11.3477 12.5033 10.8919 13.4473 9.98047 14.1504C9.07552 14.847 7.84505 15.1953 6.28906 15.1953C5.26042 15.1953 4.31315 15.0065 3.44727 14.6289C2.58789 14.2448 1.91732 13.7174 1.43555 13.0469C0.960286 12.3763 0.722656 11.5951 0.722656 10.7031H3.19336C3.19336 11.5104 3.46029 12.1354 3.99414 12.5781C4.52799 13.0208 5.29297 13.2422 6.28906 13.2422C7.14844 13.2422 7.79297 13.0697 8.22266 12.7246C8.65885 12.373 8.87695 11.9108 8.87695 11.3379ZM21.4746 11.6895H15.9668L14.8145 15H12.2461L17.6172 0.78125H19.834L25.2148 15H22.6367L21.4746 11.6895ZM16.6602 9.69727H20.7812L18.7207 3.79883L16.6602 9.69727ZM37.5195 13.1543C37.0052 13.8249 36.2923 14.3327 35.3809 14.6777C34.4694 15.0228 33.4342 15.1953 32.2754 15.1953C31.084 15.1953 30.0293 14.9251 29.1113 14.3848C28.1934 13.8444 27.4837 13.0729 26.9824 12.0703C26.4876 11.0612 26.2305 9.88607 26.2109 8.54492V7.43164C26.2109 5.2832 26.7253 3.60677 27.7539 2.40234C28.7826 1.19141 30.2181 0.585938 32.0605 0.585938C33.6426 0.585938 34.8991 0.976562 35.8301 1.75781C36.7611 2.53906 37.321 3.66536 37.5098 5.13672H35.0879C34.8145 3.42448 33.8216 2.56836 32.1094 2.56836C31.0026 2.56836 30.1595 2.96875 29.5801 3.76953C29.0072 4.5638 28.7109 5.73242 28.6914 7.27539V8.36914C28.6914 9.9056 29.0137 11.1003 29.6582 11.9531C30.3092 12.7995 31.2109 13.2227 32.3633 13.2227C33.6263 13.2227 34.5247 12.9362 35.0586 12.3633V9.58008H32.1289V7.70508H37.5195V13.1543ZM48.1934 11.6895H42.6855L41.5332 15H38.9648L44.3359 0.78125H46.5527L51.9336 15H49.3555L48.1934 11.6895ZM43.3789 9.69727H47.5L45.4395 3.79883L43.3789 9.69727ZM62.6562 2.77344H58.2227V15H55.7715V2.77344H51.377V0.78125H62.6562V2.77344ZM75.8203 15H73.3594V8.68164H67.002V15H64.5312V0.78125H67.002V6.69922H73.3594V0.78125H75.8203V15Z" fill="#A8904C"/>
</svg>
